# xmcd CD database file
#
# Track frame offsets:
#	150
#	17425
#	31812
#	46662
#	60292
#	68660
#	87557
#
# Disc length: 1393 seconds
#
# Revision: 0
# Processed by: cddbd v1.5.1PL0 Copyright (c) Steve Scherf et al.
# Submitted via: CDex 1.51
#
DISCID=46056f07
DTITLE=COIL - COIL DEMO TRACKS
DYEAR=1900
DGENRE=JPop
TTITLE0=ボンテージ・スーパーカー
TTITLE1=下心ボーダーレス
TTITLE2=クルクル　フェチ
TTITLE3=ねてよう日
TTITLE4=僕はスーパーマン？
TTITLE5=Plues
TTITLE6=かしわで　ぱんぱん
EXTD=
EXTT0=
EXTT1=
EXTT2=
EXTT3=
EXTT4=
EXTT5=
EXTT6=
PLAYORDER=
